<?xml version="1.0" encoding="UTF-8"?>
<svg xmlns="http://www.w3.org/2000/svg" xmlns:xlink="http://www.w3.org/1999/xlink" width="36pt" height="36pt" viewBox="0 0 36 36" version="1.1">
<g id="surface3074">
<path style=" stroke:none;fill-rule:nonzero;fill:rgb(24.705882%,31.764707%,70.980394%);fill-opacity:1;" d="M 31.5 27.75 C 31.5 29.820312 29.820312 31.5 27.75 31.5 L 8.25 31.5 C 6.179688 31.5 4.5 29.820312 4.5 27.75 L 4.5 8.25 C 4.5 6.179688 6.179688 4.5 8.25 4.5 L 27.75 4.5 C 29.820312 4.5 31.5 6.179688 31.5 8.25 Z M 31.5 27.75 "/>
<path style=" stroke:none;fill-rule:nonzero;fill:rgb(100%,100%,100%);fill-opacity:1;" d="M 25.777344 18.75 L 23.25 18.75 L 23.25 28.5 L 19.5 28.5 L 19.5 18.75 L 17.25 18.75 L 17.25 15.75 L 19.5 15.75 L 19.5 13.941406 C 19.5 11.3125 20.59375 9.75 23.695312 9.75 L 26.25 9.75 L 26.25 12.75 L 24.535156 12.75 C 23.328125 12.75 23.25 13.199219 23.25 14.042969 L 23.25 15.75 L 26.25 15.75 Z M 25.777344 18.75 "/>
</g>
</svg>
